<svg xmlns="http://www.w3.org/2000/svg" viewBox="0 0 64 64">
  <rect width="64" height="64" rx="14" fill="#fffdf8" />
  <rect x="12" y="12" width="10" height="10" fill="#16120d" />
  <rect x="22" y="12" width="10" height="10" fill="#fffdf8" />
  <rect x="32" y="12" width="10" height="10" fill="#16120d" />
  <rect x="42" y="12" width="10" height="10" fill="#fffdf8" />
  <rect x="12" y="22" width="10" height="10" fill="#fffdf8" />
  <rect x="22" y="22" width="10" height="10" fill="#16120d" />
  <rect x="32" y="22" width="10" height="10" fill="#fffdf8" />
  <rect x="42" y="22" width="10" height="10" fill="#16120d" />
  <rect x="12" y="32" width="10" height="10" fill="#16120d" />
  <rect x="22" y="32" width="10" height="10" fill="#fffdf8" />
  <rect x="32" y="32" width="10" height="10" fill="#16120d" />
  <rect x="42" y="32" width="10" height="10" fill="#fffdf8" />
  <rect x="12" y="42" width="10" height="10" fill="#fffdf8" />
  <rect x="22" y="42" width="10" height="10" fill="#16120d" />
  <rect x="32" y="42" width="10" height="10" fill="#fffdf8" />
  <rect x="42" y="42" width="10" height="10" fill="#16120d" />
</svg>
